<svg width="46" height="46" viewBox="0 0 46 46" fill="none" xmlns="http://www.w3.org/2000/svg">
<g id="icon/instagram">
<path id="vector" fill-rule="evenodd" clip-rule="evenodd" d="M23 5.75C18.3149 5.75 17.7284 5.76955 15.8884 5.8535C14.0518 5.93745 12.7972 6.22955 11.7001 6.6562C10.5501 7.0886 9.50705 7.7671 8.64455 8.6457C7.76735 9.5072 7.08844 10.5495 6.65505 11.7001C6.2307 12.7972 5.93745 14.053 5.8535 15.8896C5.7707 17.7284 5.75 18.3138 5.75 23C5.75 27.6862 5.76955 28.2716 5.8535 30.1116C5.93745 31.9481 6.22955 33.2028 6.6562 34.2999C7.0886 35.4499 7.7671 36.4929 8.6457 37.3554C9.50723 38.2326 10.5495 38.9115 11.7001 39.3449C12.7972 39.7704 14.0518 40.0625 15.8884 40.1465C17.7284 40.2304 18.3149 40.25 23 40.25C27.6851 40.25 28.2716 40.2304 30.1116 40.1465C31.9481 40.0625 33.2028 39.7705 34.2999 39.3438C35.4499 38.9114 36.4929 38.2329 37.3554 37.3543C38.2326 36.4928 38.9116 35.4505 39.3449 34.2999C39.7704 33.2028 40.0625 31.9481 40.1465 30.1116C40.2304 28.2716 40.25 27.6851 40.25 23C40.25 18.3149 40.2304 17.7284 40.1465 15.8884C40.0625 14.0518 39.7705 12.7972 39.3438 11.7001C38.9107 10.549 38.2318 9.50627 37.3543 8.64455C36.4928 7.76735 35.4505 7.08844 34.2999 6.65505C33.2028 6.2307 31.947 5.93745 30.1105 5.8535C28.2716 5.7707 27.6862 5.75 23 5.75ZM23 8.85845C27.6057 8.85845 28.152 8.8757 29.9713 8.9585C31.6526 9.03555 32.5657 9.315 33.174 9.55305C33.979 9.8647 34.5541 10.2396 35.1578 10.8422C35.7615 11.446 36.1353 12.0209 36.447 12.8259C36.6838 13.4343 36.9644 14.3474 37.0415 16.0287C37.1243 17.848 37.1416 18.3942 37.1416 23C37.1416 27.6057 37.1243 28.152 37.0415 29.9713C36.9644 31.6526 36.685 32.5657 36.447 33.174C36.1709 33.9233 35.7304 34.6012 35.1578 35.1578C34.6013 35.7305 33.9234 36.171 33.174 36.447C32.5657 36.6838 31.6526 36.9644 29.9713 37.0415C28.152 37.1243 27.6069 37.1416 23 37.1416C18.3931 37.1416 17.848 37.1243 16.0287 37.0415C14.3474 36.9644 13.4343 36.685 12.8259 36.447C12.0767 36.1709 11.3988 35.7304 10.8422 35.1578C10.2697 34.6011 9.8292 33.9233 9.55305 33.174C9.31615 32.5657 9.03555 31.6526 8.9585 29.9713C8.8757 28.152 8.85845 27.6057 8.85845 23C8.85845 18.3942 8.8757 17.848 8.9585 16.0287C9.03555 14.3474 9.315 13.4343 9.55305 12.8259C9.8647 12.0209 10.2396 11.446 10.8422 10.8422C11.3987 10.2696 12.0766 9.82902 12.8259 9.55305C13.4343 9.31615 14.3474 9.03555 16.0287 8.9585C17.848 8.8757 18.3942 8.85845 23 8.85845Z" fill="#FDA923"/>
<path id="vector_2" fill-rule="evenodd" clip-rule="evenodd" d="M23 28.7556C22.2442 28.7556 21.4957 28.6067 20.7974 28.3175C20.0991 28.0282 19.4646 27.6042 18.9301 27.0698C18.3956 26.5353 17.9717 25.9008 17.6824 25.2025C17.3932 24.5042 17.2443 23.7557 17.2443 22.9998C17.2443 22.244 17.3932 21.4955 17.6824 20.7972C17.9717 20.0989 18.3956 19.4644 18.9301 18.9299C19.4646 18.3954 20.0991 17.9715 20.7974 17.6822C21.4957 17.393 22.2442 17.2441 23 17.2441C24.5266 17.2441 25.9906 17.8505 27.07 18.9299C28.1494 20.0093 28.7558 21.4733 28.7558 22.9998C28.7558 24.5264 28.1494 25.9904 27.07 27.0698C25.9906 28.1492 24.5266 28.7556 23 28.7556ZM23 14.1333C20.6485 14.1333 18.3933 15.0675 16.7305 16.7303C15.0677 18.3931 14.1335 20.6483 14.1335 22.9998C14.1335 25.3514 15.0677 27.6066 16.7305 29.2694C18.3933 30.9322 20.6485 31.8663 23 31.8663C25.3516 31.8663 27.6068 30.9322 29.2696 29.2694C30.9324 27.6066 31.8665 25.3514 31.8665 22.9998C31.8665 20.6483 30.9324 18.3931 29.2696 16.7303C27.6068 15.0675 25.3516 14.1333 23 14.1333ZM34.446 13.9723C34.446 14.5282 34.2252 15.0613 33.8321 15.4543C33.4391 15.8474 32.906 16.0682 32.3501 16.0682C31.7943 16.0682 31.2612 15.8474 30.8681 15.4543C30.4751 15.0613 30.2542 14.5282 30.2542 13.9723C30.2542 13.4165 30.4751 12.8834 30.8681 12.4903C31.2612 12.0973 31.7943 11.8765 32.3501 11.8765C32.906 11.8765 33.4391 12.0973 33.8321 12.4903C34.2252 12.8834 34.446 13.4165 34.446 13.9723Z" fill="#FDA923"/>
</g>
</svg>
