<svg width="46" height="46" viewBox="0 0 46 46" fill="none" xmlns="http://www.w3.org/2000/svg">
<path fill-rule="evenodd" clip-rule="evenodd" d="M23 5.75C18.3149 5.75 17.7284 5.76955 15.8884 5.8535C14.0518 5.93745 12.7972 6.22955 11.7001 6.6562C10.5501 7.0886 9.50705 7.7671 8.64455 8.6457C7.76735 9.5072 7.08844 10.5495 6.65505 11.7001C6.2307 12.7972 5.93745 14.053 5.8535 15.8896C5.7707 17.7284 5.75 18.3137 5.75 23C5.75 27.6862 5.76955 28.2716 5.8535 30.1116C5.93745 31.9481 6.22955 33.2028 6.6562 34.2999C7.0886 35.4499 7.7671 36.4929 8.6457 37.3554C9.50723 38.2326 10.5495 38.9115 11.7001 39.3449C12.7972 39.7704 14.0518 40.0625 15.8884 40.1465C17.7284 40.2304 18.3149 40.25 23 40.25C27.6851 40.25 28.2716 40.2304 30.1116 40.1465C31.9481 40.0625 33.2028 39.7704 34.2999 39.3438C35.4499 38.9114 36.4929 38.2329 37.3554 37.3543C38.2326 36.4928 38.9116 35.4505 39.3449 34.2999C39.7704 33.2028 40.0625 31.9481 40.1465 30.1116C40.2304 28.2716 40.25 27.6851 40.25 23C40.25 18.3149 40.2304 17.7284 40.1465 15.8884C40.0625 14.0518 39.7704 12.7972 39.3438 11.7001C38.9107 10.549 38.2318 9.50627 37.3543 8.64455C36.4928 7.76735 35.4505 7.08844 34.2999 6.65505C33.2028 6.2307 31.947 5.93745 30.1105 5.8535C28.2716 5.7707 27.6862 5.75 23 5.75ZM23 8.85845C27.6057 8.85845 28.152 8.8757 29.9713 8.9585C31.6526 9.03555 32.5657 9.315 33.174 9.55305C33.979 9.8647 34.5541 10.2396 35.1578 10.8422C35.7615 11.4459 36.1353 12.0209 36.447 12.8259C36.6839 13.4343 36.9644 14.3474 37.0415 16.0287C37.1243 17.848 37.1416 18.3942 37.1416 23C37.1416 27.6057 37.1243 28.152 37.0415 29.9713C36.9644 31.6526 36.685 32.5657 36.447 33.174C36.1709 33.9233 35.7304 34.6012 35.1578 35.1578C34.6013 35.7305 33.9234 36.171 33.174 36.447C32.5657 36.6839 31.6526 36.9644 29.9713 37.0415C28.152 37.1243 27.6069 37.1416 23 37.1416C18.3931 37.1416 17.848 37.1243 16.0287 37.0415C14.3474 36.9644 13.4343 36.685 12.8259 36.447C12.0767 36.1709 11.3988 35.7304 10.8422 35.1578C10.2697 34.6011 9.8292 33.9233 9.55305 33.174C9.31615 32.5657 9.03555 31.6526 8.9585 29.9713C8.8757 28.152 8.85845 27.6057 8.85845 23C8.85845 18.3942 8.8757 17.848 8.9585 16.0287C9.03555 14.3474 9.315 13.4343 9.55305 12.8259C9.8647 12.0209 10.2396 11.4459 10.8422 10.8422C11.3987 10.2696 12.0766 9.82902 12.8259 9.55305C13.4343 9.31615 14.3474 9.03555 16.0287 8.9585C17.848 8.8757 18.3942 8.85845 23 8.85845V8.85845Z" fill="#FDA923"/>
<path fill-rule="evenodd" clip-rule="evenodd" d="M23 28.7557C22.2442 28.7557 21.4957 28.6069 20.7974 28.3176C20.0991 28.0284 19.4646 27.6044 18.9301 27.0699C18.3956 26.5355 17.9717 25.901 17.6824 25.2026C17.3932 24.5043 17.2443 23.7559 17.2443 23C17.2443 22.2441 17.3932 21.4957 17.6824 20.7974C17.9717 20.099 18.3956 19.4645 18.9301 18.9301C19.4646 18.3956 20.0991 17.9716 20.7974 17.6824C21.4957 17.3931 22.2442 17.2442 23 17.2442C24.5266 17.2442 25.9906 17.8507 27.07 18.9301C28.1494 20.0095 28.7558 21.4735 28.7558 23C28.7558 24.5265 28.1494 25.9905 27.07 27.0699C25.9906 28.1493 24.5266 28.7557 23 28.7557V28.7557ZM23 14.1335C20.6485 14.1335 18.3933 15.0676 16.7305 16.7304C15.0677 18.3932 14.1335 20.6485 14.1335 23C14.1335 25.3515 15.0677 27.6068 16.7305 29.2696C18.3933 30.9324 20.6485 31.8665 23 31.8665C25.3516 31.8665 27.6068 30.9324 29.2696 29.2696C30.9324 27.6068 31.8665 25.3515 31.8665 23C31.8665 20.6485 30.9324 18.3932 29.2696 16.7304C27.6068 15.0676 25.3516 14.1335 23 14.1335V14.1335ZM34.446 13.9725C34.446 14.5284 34.2252 15.0615 33.8321 15.4545C33.4391 15.8476 32.906 16.0684 32.3501 16.0684C31.7943 16.0684 31.2612 15.8476 30.8681 15.4545C30.4751 15.0615 30.2542 14.5284 30.2542 13.9725C30.2542 13.4166 30.4751 12.8835 30.8681 12.4905C31.2612 12.0974 31.7943 11.8766 32.3501 11.8766C32.906 11.8766 33.4391 12.0974 33.8321 12.4905C34.2252 12.8835 34.446 13.4166 34.446 13.9725" fill="#FDA923"/>
</svg>
