<svg width="49" height="37" viewBox="0 0 49 37" fill="none" xmlns="http://www.w3.org/2000/svg">
<path fill-rule="evenodd" clip-rule="evenodd" d="M43.5905 1.11813C45.6977 1.72801 47.3646 3.52382 47.9307 5.79395C48.9685 9.92765 49 18.5 49 18.5C49 18.5 49 27.1062 47.9621 31.206C47.396 33.4762 45.7291 35.272 43.622 35.8819C39.8164 37 24.5 37 24.5 37C24.5 37 9.18357 37 5.37805 35.8819C3.27086 35.272 1.60398 33.4762 1.03787 31.206C0 27.0723 0 18.5 0 18.5C0 18.5 0 9.92765 1.00642 5.82784C1.57253 3.55769 3.23941 1.76191 5.3466 1.15202C9.15212 0.0338745 24.4685 0 24.4685 0C24.4685 0 39.785 0 43.5905 1.11813ZM32.2997 18.5L19.5937 26.4286V10.5714L32.2997 18.5Z" fill="#FDA923"/>
</svg>
